#N canvas 623 217 1120 934 10;
#X msg 234 62 stop;
#X msg 270 111 o;
#X obj 198 111 metro 500;
#X obj 198 147 i;
#X obj 251 176 + 1;
#X floatatom 198 187 5 0 0 0 - - -, f 5;
#X obj 198 221 % 16;
#X floatatom 198 256 5 0 0 0 - - -, f 5;
#X obj 425 545 sel 0 1 2 3 4 5 6 7 8 9 10 11 12 13 14 15;
#X obj 351 599 i;
#X obj 434 299 hradio 15 0 0 16 empty empty empty 0 -8 0 10 -262144
-1 -1 0;
#X obj 434 320 vradio 15 0 1 12 empty empty empty 0 -8 0 10 -262144
-1 -1 3;
#X obj 449 320 vradio 15 0 1 12 empty empty empty 0 -8 0 10 -262144
-1 -1 5;
#X obj 464 320 vradio 15 0 1 12 empty empty empty 0 -8 0 10 -262144
-1 -1 6;
#X obj 479 320 vradio 15 0 1 12 empty empty empty 0 -8 0 10 -262144
-1 -1 5;
#X obj 494 320 vradio 15 0 1 12 empty empty empty 0 -8 0 10 -262144
-1 -1 6;
#X obj 509 320 vradio 15 0 1 12 empty empty empty 0 -8 0 10 -262144
-1 -1 7;
#X obj 524 320 vradio 15 0 1 12 empty empty empty 0 -8 0 10 -262144
-1 -1 3;
#X obj 539 320 vradio 15 0 1 12 empty empty empty 0 -8 0 10 -262144
-1 -1 2;
#X obj 554 320 vradio 15 0 1 12 empty empty empty 0 -8 0 10 -262144
-1 -1 4;
#X obj 569 320 vradio 15 0 1 12 empty empty empty 0 -8 0 10 -262144
-1 -1 4;
#X obj 584 320 vradio 15 0 1 12 empty empty empty 0 -8 0 10 -262144
-1 -1 3;
#X obj 599 320 vradio 15 0 1 12 empty empty empty 0 -8 0 10 -262144
-1 -1 4;
#X obj 614 320 vradio 15 0 1 12 empty empty empty 0 -8 0 10 -262144
-1 -1 7;
#X obj 629 320 vradio 15 0 1 12 empty empty empty 0 -8 0 10 -262144
-1 -1 11;
#X obj 644 320 vradio 15 0 1 12 empty empty empty 0 -8 0 10 -262144
-1 -1 4;
#X obj 659 320 vradio 15 0 1 12 empty empty empty 0 -8 0 10 -262144
-1 -1 7;
#X obj 376 599 i;
#X obj 401 599 i;
#X obj 426 599 i;
#X obj 451 599 i;
#X obj 476 599 i;
#X obj 501 599 i;
#X obj 526 599 i;
#X obj 551 599 i;
#X obj 576 599 i;
#X obj 601 599 i;
#X obj 626 599 i;
#X obj 651 599 i;
#X obj 676 599 i;
#X obj 701 599 i;
#X obj 726 599 i;
#X floatatom 538 709 5 0 0 0 - - -, f 5;
#X msg 234 36 bang;
#X text 274 37 Start;
#X text 275 64 Stop;
#X obj 569 276 hradio 15 0 1 6 empty empty empty 0 -8 0 10 -262144
-1 -1 2;
#X text 568 248 Octave;
#X text 571 261 1;
#X text 586 261 2;
#X text 601 261 3;
#X text 616 261 4;
#X obj 539 672 expr $i1 + ($i2 + 1) * 12;
#X text 631 261 5;
#X text 647 261 6;
#X text 416 320 C;
#X text 416 335 C#;
#X text 416 350 D;
#X text 416 364 D#;
#X text 416 379 E;
#X text 416 394 F;
#X text 416 409 F#;
#X text 416 424 G;
#X text 416 439 G#;
#X text 416 453 A;
#X text 416 468 A#;
#X text 416 483 B;
#X obj 449 253 tgl 15 0 empty empty empty 17 7 0 10 -262144 -1 -1 0
1;
#X obj -175 402 random 12;
#X obj 449 276 bng 15 250 50 0 empty empty empty 17 7 0 10 -262144
-1 -1;
#X obj -154 427 random 12;
#X obj -104 401 random 12;
#X obj -83 426 random 12;
#X obj -32 400 random 12;
#X obj -11 425 random 12;
#X obj 39 399 random 12;
#X obj 60 424 random 12;
#X obj 109 398 random 12;
#X obj 130 423 random 12;
#X obj 180 397 random 12;
#X obj 201 422 random 12;
#X obj 247 396 random 12;
#X obj 268 421 random 12;
#X obj 318 395 random 12;
#X obj 339 420 random 12;
#X text 471 252 Start/Stop;
#X text 471 276 Randomize;
#X obj 537 749 outlet;
#X obj 378 61 inlet;
#X text 423 59 Tempo in miliseconds between beats;
#X connect 0 0 2 0;
#X connect 1 0 3 1;
#X connect 2 0 3 0;
#X connect 3 0 4 0;
#X connect 3 0 5 0;
#X connect 4 0 3 1;
#X connect 5 0 6 0;
#X connect 6 0 7 0;
#X connect 7 0 10 0;
#X connect 8 0 9 0;
#X connect 8 1 27 0;
#X connect 8 2 28 0;
#X connect 8 3 29 0;
#X connect 8 4 30 0;
#X connect 8 5 31 0;
#X connect 8 6 32 0;
#X connect 8 7 33 0;
#X connect 8 8 34 0;
#X connect 8 9 35 0;
#X connect 8 10 36 0;
#X connect 8 11 37 0;
#X connect 8 12 38 0;
#X connect 8 13 39 0;
#X connect 8 14 40 0;
#X connect 8 15 41 0;
#X connect 9 0 52 0;
#X connect 10 0 8 0;
#X connect 11 0 9 1;
#X connect 12 0 27 1;
#X connect 13 0 28 1;
#X connect 14 0 29 1;
#X connect 15 0 30 1;
#X connect 16 0 31 1;
#X connect 17 0 32 1;
#X connect 18 0 33 1;
#X connect 19 0 34 1;
#X connect 20 0 35 1;
#X connect 21 0 36 1;
#X connect 22 0 37 1;
#X connect 23 0 38 1;
#X connect 24 0 39 1;
#X connect 25 0 40 1;
#X connect 26 0 41 1;
#X connect 27 0 52 0;
#X connect 28 0 52 0;
#X connect 29 0 52 0;
#X connect 30 0 52 0;
#X connect 31 0 52 0;
#X connect 32 0 52 0;
#X connect 33 0 52 0;
#X connect 34 0 52 0;
#X connect 35 0 52 0;
#X connect 36 0 52 0;
#X connect 37 0 52 0;
#X connect 38 0 52 0;
#X connect 39 0 52 0;
#X connect 40 0 52 0;
#X connect 41 0 52 0;
#X connect 42 0 87 0;
#X connect 43 0 1 0;
#X connect 43 0 2 0;
#X connect 46 0 52 1;
#X connect 52 0 42 0;
#X connect 67 0 2 0;
#X connect 68 0 11 0;
#X connect 69 0 68 0;
#X connect 69 0 70 0;
#X connect 69 0 71 0;
#X connect 69 0 72 0;
#X connect 69 0 73 0;
#X connect 69 0 75 0;
#X connect 69 0 77 0;
#X connect 69 0 79 0;
#X connect 69 0 74 0;
#X connect 69 0 76 0;
#X connect 69 0 78 0;
#X connect 69 0 80 0;
#X connect 69 0 81 0;
#X connect 69 0 83 0;
#X connect 69 0 82 0;
#X connect 69 0 84 0;
#X connect 70 0 12 0;
#X connect 71 0 13 0;
#X connect 72 0 14 0;
#X connect 73 0 15 0;
#X connect 74 0 16 0;
#X connect 75 0 17 0;
#X connect 76 0 18 0;
#X connect 77 0 19 0;
#X connect 78 0 20 0;
#X connect 79 0 21 0;
#X connect 80 0 22 0;
#X connect 81 0 23 0;
#X connect 82 0 24 0;
#X connect 83 0 25 0;
#X connect 84 0 26 0;
#X connect 88 0 2 1;
#X coords 0 -1 1 1 280 270 2 407 245;
