#N canvas 708 285 1170 825 10;
#X obj 123 265 timer;
#X obj 135 98 f;
#X obj 82 58 + 1;
#X obj 31 151 sel 3;
#X msg 220 169 0;
#X obj 81 173 moses 1;
#X obj 81 224 bang;
#X obj 149 215 bang;
#X obj 124 379 f;
#X obj 175 421 +;
#X obj 123 319 t b f;
#X obj 238 200 == 3;
#X obj 202 298 spigot;
#X obj 201 244 /;
#X obj 68 122 t f f f;
#X obj 371 324 bng 15 250 50 0 empty empty empty 17 7 0 10 -262144
-1 -1;
#X floatatom 236 346 5 0 0 0 - - -, f 5;
#X obj 265 387 expr 60000/$i1;
#X obj 238 502 outlet;
#X floatatom 428 324 5 80 200 0 - - -, f 5;
#X obj 651 386 expr 60000/$i1;
#X text 466 325 BPM;
#X text 368 302 Tap 4 times or set BPM manually;
#X text 389 323 Tap;
#X msg 442 206 120;
#X obj 530 179 loadbang;
#X connect 0 0 10 0;
#X connect 1 0 2 0;
#X connect 1 0 14 0;
#X connect 2 0 1 1;
#X connect 3 0 4 0;
#X connect 4 0 1 1;
#X connect 4 0 9 1;
#X connect 5 0 6 0;
#X connect 5 1 7 0;
#X connect 6 0 0 0;
#X connect 7 0 0 1;
#X connect 7 0 0 0;
#X connect 8 0 9 1;
#X connect 8 0 13 0;
#X connect 9 0 8 1;
#X connect 10 0 8 0;
#X connect 10 1 9 0;
#X connect 11 0 12 1;
#X connect 12 0 16 0;
#X connect 13 0 12 0;
#X connect 14 0 3 0;
#X connect 14 1 5 0;
#X connect 14 2 11 0;
#X connect 14 2 13 1;
#X connect 15 0 1 0;
#X connect 16 0 18 0;
#X connect 16 0 17 0;
#X connect 17 0 19 0;
#X connect 19 0 20 0;
#X connect 20 0 18 0;
#X connect 24 0 19 0;
#X connect 24 0 20 0;
#X connect 25 0 24 0;
#X coords 0 -1 1 1 200 60 2 364 297;
